<svg id="Layer_1" data-name="Layer 1" xmlns="http://www.w3.org/2000/svg" viewBox="0 0 1163.37 300">
    <defs>
        <style>.cls-3{fill:#00FFFF;}</style>
        <style>.cls-4{fill:#00FF00;}</style>
    </defs>
    <title>NS-Horizontal-BLK-180918_1</title>
    <path class="cls-3" d="M129.76,156.3,87.19,93.16s1,61.6,1,63.14H78.39V78.64h9.79l42,62.26s-.44-59.84-.44-62.26h9.35V156.3Z"/>
    <path class="cls-3" d="M236.23,158.28c-20.13,0-38.83-13.09-38.83-40.92,0-28.38,19.25-40.7,39.16-40.7,23.65,0,39.05,16.61,39.05,40.15C275.61,135.73,265.27,158.28,236.23,158.28Zm.55-8.14c15.4,0,27.61-10.34,27.61-33.33,0-15.4-6.93-31.79-27.83-31.79-20.57,0-27.94,16.28-27.94,32.45C208.62,137.49,219.29,150.14,236.78,150.14Z"/>
    <path class="cls-3" d="M385.17,156.3l-21.23-33h-20v33H333.8V78.64h35c14.85,0,25.19,7,25.19,22.66,0,9.46-4.07,19-18.26,21.34l21.78,33.66ZM366.8,114.61c8.91,0,16.94-2.64,16.94-13.31,0-8.69-5.61-14.08-15.51-14.08H343.92v27.39Z"/>
    <path class="cls-3" d="M475.26,87.66V156.3H464.92V87.66H441.6v-9h56.87v9Z"/>
    <path class="cls-3" d="M603,156.3V120.77H560.73V156.3H550.5V78.64h10.23v33H603v-33h10.45V156.3Z"/>
    <path class="cls-3" d="M681.29,130c.11,3.08.77,20.13,22.33,20.13,6.49,0,19.36-2.53,19.36-15.51,0-8.69-6.38-11.22-14.74-12.87l-7-1.43c-17.49-3.52-27.28-9.13-27.28-22.11A19.35,19.35,0,0,1,681.29,83c7.48-6.16,16.39-6.38,20.13-6.38,7.7,0,15.18,1,21.45,5.83,6.82,5.17,8.58,10.78,9.9,18l-10.45.66c0-4.4-2.42-16.5-20-16.5-7.37,0-17.71,2.64-17.71,12.21,0,7.48,6.71,10.12,15.51,12.21l14.19,3.41c3.63.88,19.8,4.4,19.8,21.45a21.76,21.76,0,0,1-6.49,15.95c-4.29,4.18-11.33,8.36-24.53,8.36-2.53,0-13.09-.11-21.23-5.39-10.34-6.71-11.33-18.15-11.66-21.45Z"/>
    <path class="cls-3" d="M814,87.66V156.3H803.61V87.66H780.29v-9h56.87v9Z"/>
    <path class="cls-3" d="M1072.67,156.3l-21.23-33h-20v33H1021.3V78.64h35c14.85,0,25.19,7,25.19,22.66,0,9.46-4.07,19-18.26,21.34L1085,156.3Zm-18.37-41.69c8.91,0,16.94-2.64,16.94-13.31,0-8.69-5.61-14.08-15.51-14.08h-24.31v27.39Z"/>
    <path class="cls-4" d="M886,156l4-2.44,27.72-66V81.12a2.31,2.31,0,0,0-4.45-.9l-30.61,72.86A2.32,2.32,0,0,0,886,156Z"/>
    <path class="cls-4" d="M878.78,152.3l27.67-65.88v-5.3a2.32,2.32,0,0,0-4.46-.9l-30.6,72.86a2.32,2.32,0,0,0,3.35,2.87l3.7-2.27A4.58,4.58,0,0,1,878.78,152.3Z"/>
    <path class="cls-4" d="M925.68,78.79l-32.79,78.08,32.79-20.07,32.79,20.07Zm4,19.86L950,147l-20.3-12.42Z"/>    
</svg>
